<svg width="30" height="30" viewBox="0 0 30 30" fill="none" xmlns="http://www.w3.org/2000/svg">
<path d="M30.9064 2.42691C29.7323 1.25288 28.3197 0.666664 26.6667 0.666664H6.66653C5.01359 0.666664 3.60091 1.25288 2.42687 2.42691C1.25284 3.60094 0.666626 5.01363 0.666626 6.66656V26.6668C0.666626 28.3197 1.25284 29.7324 2.42687 30.9064C3.60091 32.0804 5.01359 32.6667 6.66653 32.6667H11.3338C11.6381 32.6667 11.8672 32.6555 12.0209 32.6346C12.1998 32.5988 12.3613 32.5034 12.479 32.3639C12.6312 32.2038 12.7081 31.9715 12.7081 31.6672L12.6969 30.2497C12.6905 29.3464 12.6872 28.632 12.6872 28.1035L12.2067 28.1868C11.9024 28.2428 11.518 28.2668 11.0519 28.2604C10.5661 28.2515 10.0819 28.2027 9.60401 28.1147C9.09532 28.0208 8.61646 27.8066 8.20734 27.49C7.77888 27.1659 7.45931 26.7189 7.29118 26.2087L7.08296 25.7282C6.90746 25.3491 6.68698 24.9926 6.42627 24.6663C6.12836 24.2771 5.82564 24.0144 5.51972 23.875L5.37557 23.7709C5.27505 23.6989 5.18363 23.615 5.10328 23.5211C5.02655 23.4338 4.96338 23.3356 4.91589 23.2296C4.87424 23.1319 4.90948 23.0518 5.02 22.9893C5.13211 22.9252 5.33232 22.8948 5.62543 22.8948L6.04187 22.9589C6.31896 23.0133 6.66332 23.1799 7.07175 23.457C7.48508 23.7388 7.83035 24.1092 8.08241 24.5413C8.40275 25.1099 8.78715 25.544 9.23883 25.8435C9.6905 26.1414 10.1454 26.292 10.6035 26.292C11.0615 26.292 11.4572 26.2567 11.7919 26.1879C12.1156 26.1209 12.4302 26.0155 12.7289 25.8739C12.8538 24.945 13.1934 24.2274 13.7492 23.7277C13.029 23.6571 12.3153 23.5318 11.6141 23.3529C10.9299 23.1649 10.2718 22.8921 9.65526 22.5408C9.01018 22.1896 8.4404 21.7151 7.9783 21.1442C7.53464 20.5884 7.16945 19.8596 6.88435 18.9579C6.60086 18.0545 6.45831 17.0118 6.45831 15.8314C6.45831 14.1512 7.00608 12.7209 8.10323 11.5389C7.5907 10.2768 7.63875 8.85927 8.24899 7.29122C8.65261 7.16469 9.25004 7.25919 10.0413 7.57151C10.8325 7.88384 11.4123 8.15132 11.7807 8.37235C12.1491 8.59659 12.4438 8.78399 12.6664 8.93615C13.9686 8.57377 15.3142 8.39162 16.6658 8.39478C18.0417 8.39478 19.3743 8.57577 20.6668 8.93615L21.4581 8.43642C22.0667 8.071 22.7086 7.76424 23.3753 7.52026C24.112 7.24157 24.6726 7.16629 25.0634 7.29122C25.6881 8.86087 25.7426 10.2768 25.2284 11.5405C26.3256 12.7209 26.8749 14.1512 26.8749 15.833C26.8749 17.0134 26.7324 18.0593 26.4473 18.9675C26.1638 19.8772 25.7954 20.606 25.3437 21.1554C24.8735 21.719 24.3013 22.189 23.6572 22.5408C22.9845 22.9156 22.331 23.1863 21.6983 23.3529C20.9972 23.5324 20.2835 23.6582 19.5633 23.7293C20.284 24.3539 20.646 25.339 20.646 26.686V31.6672C20.646 31.9027 20.6796 32.0933 20.7501 32.239C20.7825 32.3092 20.8287 32.3722 20.8859 32.4242C20.9432 32.4762 21.0103 32.5162 21.0833 32.5417C21.237 32.5962 21.3716 32.6314 21.4901 32.6442C21.6086 32.6603 21.7784 32.6651 21.9994 32.6651H26.6667C28.3197 32.6651 29.7323 32.0788 30.9064 30.9048C32.0788 29.7324 32.6666 28.3181 32.6666 26.6652V6.66656C32.6666 5.01363 32.0804 3.60094 30.9064 2.42691Z" fill="white"/>
</svg>
