<svg width="28" height="24" viewBox="0 0 28 24" fill="none" xmlns="http://www.w3.org/2000/svg">
<path d="M1.99996 0H26C26.3536 0 26.6927 0.140476 26.9428 0.390524C27.1928 0.640573 27.3333 0.979711 27.3333 1.33333V22.6667C27.3333 23.0203 27.1928 23.3594 26.9428 23.6095C26.6927 23.8595 26.3536 24 26 24H1.99996C1.64634 24 1.3072 23.8595 1.05715 23.6095C0.807102 23.3594 0.666626 23.0203 0.666626 22.6667V1.33333C0.666626 0.979711 0.807102 0.640573 1.05715 0.390524C1.3072 0.140476 1.64634 0 1.99996 0ZM14.08 11.5773L5.53063 4.31733L3.80396 6.34933L14.0973 15.0893L24.2053 6.34267L22.4613 4.32533L14.08 11.5773Z" fill="white"/>
</svg>
