<svg width="30" height="26" viewBox="0 0 30 26" fill="none" xmlns="http://www.w3.org/2000/svg">
<path d="M15 10.48C16.3733 10.48 17.4933 11.6 17.4933 13C17.4933 14.3333 16.3733 15.4667 15 15.4667C13.6267 15.4667 12.5067 14.3333 12.5067 13C12.5067 11.6 13.6267 10.48 15 10.48ZM8.82666 23.6667C9.66666 24.1733 11.5067 23.4 13.6267 21.4C12.9333 20.6133 12.2533 19.76 11.6133 18.8667C10.5389 18.7638 9.47067 18.6036 8.41332 18.3867C7.73332 21.24 7.98666 23.2 8.82666 23.6667ZM9.77332 16.0133L9.38666 15.3333C9.23999 15.72 9.09332 16.1067 8.99999 16.48C9.35999 16.56 9.75999 16.6267 10.1733 16.6933L9.77332 16.0133ZM18.4933 15L19.5733 13L18.4933 11C18.0933 10.2933 17.6667 9.66667 17.28 9.04C16.56 9 15.8 9 15 9C14.2 9 13.44 9 12.72 9.04C12.3333 9.66667 11.9067 10.2933 11.5067 11L10.4267 13L11.5067 15C11.9067 15.7067 12.3333 16.3333 12.72 16.96C13.44 17 14.2 17 15 17C15.8 17 16.56 17 17.28 16.96C17.6667 16.3333 18.0933 15.7067 18.4933 15ZM15 6.04C14.7467 6.33334 14.48 6.64 14.2133 7H15.7867C15.52 6.64 15.2533 6.33334 15 6.04ZM15 19.96C15.2533 19.6667 15.52 19.36 15.7867 19H14.2133C14.48 19.36 14.7467 19.6667 15 19.96ZM21.16 2.33334C20.3333 1.82667 18.4933 2.6 16.3733 4.6C17.0667 5.38667 17.7467 6.24 18.3867 7.13334C19.48 7.24 20.56 7.4 21.5867 7.61334C22.2667 4.76 22.0133 2.8 21.16 2.33334ZM20.2267 9.98667L20.6133 10.6667C20.76 10.28 20.9067 9.89334 21 9.52C20.64 9.44 20.24 9.37334 19.8267 9.30667L20.2267 9.98667ZM22.16 0.586669C24.12 1.70667 24.3333 4.65334 23.5067 8.09334C26.8933 9.09334 29.3333 10.7467 29.3333 13C29.3333 15.2533 26.8933 16.9067 23.5067 17.9067C24.3333 21.3467 24.12 24.2933 22.16 25.4133C20.2133 26.5333 17.56 25.2533 15 22.8133C12.44 25.2533 9.78666 26.5333 7.82666 25.4133C5.87999 24.2933 5.66666 21.3467 6.49332 17.9067C3.10666 16.9067 0.666656 15.2533 0.666656 13C0.666656 10.7467 3.10666 9.09334 6.49332 8.09334C5.66666 4.65334 5.87999 1.70667 7.82666 0.586669C9.78666 -0.533331 12.44 0.746669 15 3.18667C17.56 0.746669 20.2133 -0.533331 22.16 0.586669ZM21.7733 13C22.2267 14 22.6267 15 22.96 16.0133C25.76 15.1733 27.3333 13.9733 27.3333 13C27.3333 12.0267 25.76 10.8267 22.96 9.98667C22.6267 11 22.2267 12 21.7733 13ZM8.22666 13C7.77332 12 7.37332 11 7.03999 9.98667C4.23999 10.8267 2.66666 12.0267 2.66666 13C2.66666 13.9733 4.23999 15.1733 7.03999 16.0133C7.37332 15 7.77332 14 8.22666 13ZM20.2267 16.0133L19.8267 16.6933C20.24 16.6267 20.64 16.56 21 16.48C20.9067 16.1067 20.76 15.72 20.6133 15.3333L20.2267 16.0133ZM16.3733 21.4C18.4933 23.4 20.3333 24.1733 21.16 23.6667C22.0133 23.2 22.2667 21.24 21.5867 18.3867C20.56 18.6 19.48 18.76 18.3867 18.8667C17.7467 19.76 17.0667 20.6133 16.3733 21.4ZM9.77332 9.98667L10.1733 9.30667C9.75999 9.37334 9.35999 9.44 8.99999 9.52C9.09332 9.89334 9.23999 10.28 9.38666 10.6667L9.77332 9.98667ZM13.6267 4.6C11.5067 2.6 9.66666 1.82667 8.82666 2.33334C7.98666 2.8 7.73332 4.76 8.41332 7.61334C9.47067 7.39639 10.5389 7.23616 11.6133 7.13334C12.2533 6.24 12.9333 5.38667 13.6267 4.6Z" fill="white"/>
</svg>
